<svg width="22" height="22" viewBox="0 0 22 22" fill="none" xmlns="http://www.w3.org/2000/svg">
<g clip-path="url(#clip0_139_82)">
<path d="M21.5434 10.77C21.5434 11.0111 21.3477 11.2068 21.1066 11.2068H19.7743C19.5516 15.6753 15.9654 19.2615 11.4968 19.4843V20.8166C11.4968 21.0577 11.3011 21.2534 11.06 21.2534C10.8189 21.2534 10.6232 21.0577 10.6232 20.8166V19.4843C6.15469 19.2615 2.5685 15.6753 2.34573 11.2068H1.01347C0.77235 11.2068 0.57666 11.0111 0.57666 10.77C0.57666 10.5289 0.77235 10.3332 1.01347 10.3332H2.34835C2.47066 7.8626 3.61072 5.57199 5.54228 3.99686C5.73098 3.84485 6.00442 3.87368 6.15731 4.05976C6.30932 4.24671 6.28136 4.5219 6.09441 4.67478C4.36727 6.08305 3.3434 8.12731 3.22196 10.3341H4.50792C4.74904 10.3341 4.94473 10.5297 4.94473 10.7709C4.94473 11.012 4.74904 11.2077 4.50792 11.2077H3.21934C3.44037 15.194 6.63692 18.3905 10.6232 18.6116V17.323C10.6232 17.0819 10.8189 16.8862 11.06 16.8862C11.3011 16.8862 11.4968 17.0819 11.4968 17.323V18.6116C15.4831 18.3905 18.6797 15.194 18.9007 11.2077H17.6121C17.371 11.2077 17.1753 11.012 17.1753 10.7709C17.1753 10.5297 17.371 10.3341 17.6121 10.3341H18.8981C18.7767 8.12731 17.7528 6.08305 16.0257 4.67478C15.8387 4.5219 15.8107 4.24671 15.9628 4.05976C16.1148 3.87281 16.3899 3.8431 16.5778 3.99686C18.5093 5.57199 19.6494 7.86348 19.7717 10.3332H21.1066C21.3477 10.3332 21.5434 10.5289 21.5434 10.77ZM7.12877 8.51432C6.64391 7.98666 6.55655 7.21001 6.90949 6.58276L9.52247 1.22051C9.85269 0.629078 10.4232 0.288368 11.0583 0.286621C11.696 0.288368 12.2665 0.629078 12.5854 1.1978L15.2167 6.59499C15.5618 7.2205 15.4718 7.99015 14.9904 8.51432C14.5309 9.01577 13.8372 9.15817 13.224 8.88036L11.0592 7.89755L8.89434 8.88036C8.68729 8.97471 8.47064 9.02102 8.2566 9.02102C7.83902 9.02102 7.43278 8.84629 7.12877 8.51432ZM7.77262 7.92376C7.8495 8.00762 8.13255 8.26796 8.53354 8.08537L10.8792 7.02044C10.9936 6.96802 11.1256 6.96802 11.24 7.02044L13.5856 8.08537C13.9884 8.26709 14.2706 8.0085 14.3474 7.92376C14.5239 7.73156 14.6558 7.37775 14.4488 7.01083C14.4453 7.00297 14.4409 6.99598 14.4374 6.98812L11.8131 1.60316C11.6593 1.33059 11.3806 1.16111 11.0592 1.16024C10.7403 1.16024 10.4616 1.33059 10.2965 1.62587L7.68351 6.98899C7.46511 7.37862 7.59702 7.73243 7.77349 7.92463L7.77262 7.92376Z" fill="#121212"/>
</g>
<defs>
<clipPath id="clip0_139_82">
<rect width="20.9667" height="20.9667" fill="white" transform="translate(0.57666 0.286621)"/>
</clipPath>
</defs>
</svg>
