<svg width="22" height="22" viewBox="0 0 22 22" fill="none" xmlns="http://www.w3.org/2000/svg">
<path d="M21.5068 18.4184L20.5659 12.3032C20.3999 11.2225 19.6626 10.3069 18.6422 9.91381C18.4185 9.82645 18.1643 9.93915 18.0778 10.1645C17.9913 10.3899 18.1032 10.6424 18.3286 10.7289C19.0571 11.0093 19.5839 11.6637 19.7027 12.4359L20.2243 15.8256H1.89499L2.41654 12.4359C2.53535 11.6637 3.06214 11.0093 3.79074 10.7289C4.01613 10.6415 4.12795 10.3891 4.04146 10.1645C3.9541 9.93915 3.70076 9.82907 3.47711 9.91381C2.4576 10.3069 1.7194 11.2225 1.55341 12.3032L0.612529 18.4184C0.476245 19.3017 0.732214 20.1963 1.31404 20.8751C1.89587 21.5521 2.74153 21.9417 3.63436 21.9417H18.4849C19.3778 21.9417 20.2243 21.553 20.8061 20.8751C21.3871 20.1971 21.6422 19.3017 21.5068 18.4184ZM20.3553 16.6817V16.6852C20.3553 16.6852 20.3518 16.6835 20.3553 16.6817ZM1.76308 16.6817C1.76308 16.6817 1.76657 16.6843 1.76308 16.6852V16.6817ZM6.74443 21.0672H3.63436C2.99662 21.0672 2.39208 20.7894 1.97711 20.3055C1.56127 19.8206 1.37956 19.182 1.47653 18.5512L1.76133 16.6992H7.29306L6.74443 21.0672ZM7.62503 21.0672L8.17279 16.6992H13.9456L14.4934 21.0672H7.62416H7.62503ZM20.1422 20.3055C19.7263 20.7894 19.1227 21.0672 18.4849 21.0672H15.3749L14.8271 16.6992H20.3597L20.6445 18.5512C20.7415 19.182 20.558 19.8206 20.143 20.3055H20.1422ZM9.52165 13.8879C9.94797 14.3046 10.5071 14.5116 11.0653 14.5116C11.6174 14.5116 12.1678 14.3081 12.5819 13.9027L15.3836 11.4138C16.5385 10.2589 17.1754 8.72308 17.1754 7.08942C17.1754 5.45576 16.5385 3.92082 15.3836 2.76503C14.2296 1.61011 12.6937 0.974121 11.0601 0.974121C9.42642 0.974121 7.89148 1.61011 6.73569 2.76503C5.5799 3.91995 4.94478 5.45576 4.94478 7.08942C4.94478 8.72308 5.58077 10.258 6.75491 11.4313L9.52165 13.8879ZM7.35246 3.38268C8.34227 2.39287 9.6588 1.84774 11.0592 1.84774C12.4596 1.84774 13.7753 2.39287 14.7651 3.38268C15.7558 4.37248 16.3009 5.68902 16.3009 7.08942C16.3009 8.48982 15.7558 9.80549 14.7843 10.7778L11.9861 13.2633C11.475 13.7638 10.6434 13.763 10.1166 13.2484L7.35246 10.7953C5.30908 8.75191 5.30908 5.42606 7.35246 3.38268ZM11.0592 9.69279C12.4989 9.69279 13.6713 8.52127 13.6713 7.08068C13.6713 5.64009 12.4989 4.46858 11.0592 4.46858C9.61949 4.46858 8.4471 5.64009 8.4471 7.08068C8.4471 8.52127 9.61862 9.69279 11.0592 9.69279ZM11.0592 5.34219C12.0184 5.34219 12.7977 6.12233 12.7977 7.08068C12.7977 8.03904 12.0176 8.81918 11.0592 8.81918C10.1009 8.81918 9.32071 8.03904 9.32071 7.08068C9.32071 6.12233 10.1009 5.34219 11.0592 5.34219Z" fill="#121212"/>
</svg>
