<svg width="48" height="48" viewBox="0 0 48 48" fill="none" xmlns="http://www.w3.org/2000/svg">
<path d="M10 24C9.998 22.672 10.51 21.412 11.444 20.468L19.28 12.306C19.476 12.102 19.738 12 20 12C20.25 12 20.498 12.092 20.694 12.28C21.092 12.66 21.104 13.296 20.722 13.694L12.876 21.866C12.55 22.196 12.312 22.582 12.166 23L37 23C37.552 23 38 23.448 38 24C38 24.552 37.552 25 37 25L12.178 25C12.328 25.416 12.57 25.796 12.894 26.118L20.802 34.216C21.188 34.61 21.18 35.244 20.786 35.63C20.39 36.014 19.756 36.008 19.372 35.612L11.476 27.526C10.538 26.602 10.01 25.334 10 24Z" fill="#086060"/>
</svg>
