<svg width="22" height="22" viewBox="0 0 22 22" fill="none" xmlns="http://www.w3.org/2000/svg">
<g clip-path="url(#clip0_139_79)">
<path d="M21.5434 8.32855C21.5434 7.12471 20.5641 6.14452 19.3594 6.14452C18.1546 6.14452 17.1753 7.12471 17.1753 8.32855C17.1753 9.383 17.9266 10.2654 18.9226 10.468V14.8807C18.9226 18.2528 16.1785 20.996 12.8073 20.996C9.43598 20.996 6.69196 18.2528 6.69196 14.8807V13.9852C9.61944 13.7607 11.9336 11.3128 11.9336 8.32855V3.96048C11.9336 2.27441 10.5621 0.902832 8.87599 0.902832H8.00238C7.76126 0.902832 7.56557 1.09852 7.56557 1.33964C7.56557 1.58076 7.76126 1.77645 8.00238 1.77645H8.87599C10.0807 1.77645 11.06 2.75664 11.06 3.96048V8.32855C11.06 10.9782 8.90395 13.1334 6.25515 13.1334C3.60635 13.1334 1.45027 10.9782 1.45027 8.32855V3.96048C1.45027 2.75664 2.4296 1.77645 3.63431 1.77645H4.50792C4.74904 1.77645 4.94473 1.58076 4.94473 1.33964C4.94473 1.09852 4.74904 0.902832 4.50792 0.902832H3.63431C1.94823 0.902832 0.57666 2.27441 0.57666 3.96048V8.32855C0.57666 11.3119 2.89086 13.7607 5.81835 13.9852V14.8807C5.81835 18.7342 8.95375 21.8696 12.8073 21.8696C16.6608 21.8696 19.7962 18.7342 19.7962 14.8807V10.468C20.7921 10.2654 21.5434 9.383 21.5434 8.32855ZM19.3594 9.63897C18.6369 9.63897 18.0489 9.05103 18.0489 8.32855C18.0489 7.60607 18.6369 7.01813 19.3594 7.01813C20.0818 7.01813 20.6698 7.60607 20.6698 8.32855C20.6698 9.05103 20.0818 9.63897 19.3594 9.63897Z" fill="#121212"/>
</g>
<defs>
<clipPath id="clip0_139_79">
<rect width="20.9667" height="20.9667" fill="white" transform="translate(0.57666 0.902832)"/>
</clipPath>
</defs>
</svg>
