<svg width="31" height="33" viewBox="0 0 31 33" fill="none" xmlns="http://www.w3.org/2000/svg">
<g clip-path="url(#clip0_3_176)">
<path d="M15.5 9.625C11.9389 9.625 9.04167 12.7091 9.04167 16.5C9.04167 20.2909 11.9389 23.375 15.5 23.375C19.0611 23.375 21.9583 20.2909 21.9583 16.5C21.9583 12.7091 19.0611 9.625 15.5 9.625ZM15.5 22C12.6506 22 10.3333 19.5333 10.3333 16.5C10.3333 13.4668 12.6506 11 15.5 11C18.3494 11 20.6667 13.4668 20.6667 16.5C20.6667 19.5333 18.3494 22 15.5 22ZM30.3542 15.8125H28.3999C28.0731 8.77662 22.7553 3.11575 16.1458 2.76787V0.6875C16.1458 0.308 15.8565 0 15.5 0C15.1435 0 14.8542 0.308 14.8542 0.6875V2.76787C8.24471 3.11575 2.92692 8.77662 2.60012 15.8125H0.645833C0.289333 15.8125 0 16.1205 0 16.5C0 16.8795 0.289333 17.1875 0.645833 17.1875H2.60012C2.92692 24.2234 8.24471 29.8842 14.8542 30.2321V32.3125C14.8542 32.692 15.1435 33 15.5 33C15.8565 33 16.1458 32.692 16.1458 32.3125V30.2321C22.7553 29.8842 28.0731 24.222 28.3999 17.1875H30.3542C30.7107 17.1875 31 16.8795 31 16.5C31 16.1205 30.7107 15.8125 30.3542 15.8125ZM15.5 28.875C9.09075 28.875 3.875 23.3241 3.875 16.5C3.875 9.67588 9.09075 4.125 15.5 4.125C21.9092 4.125 27.125 9.67588 27.125 16.5C27.125 23.3241 21.9092 28.875 15.5 28.875Z" fill="black"/>
</g>
<defs>
<clipPath id="clip0_3_176">
<rect width="31" height="33" fill="white"/>
</clipPath>
</defs>
</svg>
