<svg width="68" height="68" viewBox="0 0 68 68" fill="none" xmlns="http://www.w3.org/2000/svg">
<g clip-path="url(#clip0_71_139)">
<path d="M58.4375 23.069C57.6725 22.8735 56.9075 23.3297 56.712 24.0862C56.5193 24.8455 56.9727 25.6162 57.7292 25.8117C62.1095 26.9365 65.1667 30.889 65.1667 35.4167V42.5H25.5V35.4167C25.5 29.9484 29.9483 25.5 35.4167 25.5H38.25C39.032 25.5 39.6667 24.8654 39.6667 24.0834C39.6667 23.3014 39.032 22.6667 38.25 22.6667H35.4167C29.8322 22.6667 25.126 26.299 23.4062 31.3084C21.845 29.5035 19.5698 28.3334 17 28.3334C12.3137 28.3334 8.5 32.147 8.5 36.8334C8.5 39.0179 9.35283 40.9927 10.71 42.5H2.83333V14.1667C2.83333 13.3847 2.19867 12.75 1.41667 12.75C0.634667 12.75 0 13.3847 0 14.1667V66.5834C0 67.3654 0.634667 68 1.41667 68C2.19867 68 2.83333 67.3654 2.83333 66.5834V56.6667H65.1667V66.5834C65.1667 67.3654 65.8013 68 66.5833 68C67.3653 68 68 67.3654 68 66.5834V35.4167C68 29.5942 64.0673 24.5169 58.4375 23.069ZM11.3333 36.8334C11.3333 33.7082 13.8748 31.1667 17 31.1667C20.1252 31.1667 22.6667 33.7082 22.6667 36.8334C22.6667 39.9585 20.1252 42.5 17 42.5C13.8748 42.5 11.3333 39.9585 11.3333 36.8334ZM2.83333 53.8334V45.3334H65.1667V53.8334H2.83333ZM19.8333 12.75C19.8333 11.968 20.468 11.3334 21.25 11.3334H32.232C32.7675 11.3334 33.269 11.0217 33.5042 10.54L37.7173 1.9182C38.2642 0.682862 39.491 -0.0906381 40.9417 0.00852862C42.3413 0.0991953 43.5002 1.03136 43.894 2.3772L48.3593 22.5704C48.4132 22.7319 48.6143 22.797 48.7305 22.814C48.8325 22.8254 49.0535 22.8197 49.198 22.593L54.5133 13.447C55.2727 12.1437 56.6808 11.3334 58.1882 11.3334H66.5833C67.3653 11.3334 68 11.968 68 12.75C68 13.532 67.3653 14.1667 66.5833 14.1667H58.1882C57.6838 14.1667 57.2163 14.4359 56.9642 14.8694L51.6233 24.055C50.983 25.075 49.9403 25.6502 48.807 25.6502C48.654 25.6502 48.501 25.6389 48.3423 25.6162C47.0362 25.4377 45.9907 24.5395 45.6167 23.273L41.1513 3.07703C41.0975 2.90703 40.902 2.84186 40.7518 2.83053C40.5988 2.83903 40.3977 2.8617 40.2843 3.11386L36.0485 11.7839C35.3402 13.2317 33.8413 14.1667 32.2292 14.1667H21.2472C20.4652 14.1667 19.8333 13.532 19.8333 12.75Z" fill="#086060"/>
</g>
<defs>
<clipPath id="clip0_71_139">
<rect width="68" height="68" fill="white"/>
</clipPath>
</defs>
</svg>
