<svg width="68" height="68" viewBox="0 0 68 68" fill="none" xmlns="http://www.w3.org/2000/svg">
<path d="M43.9166 8.49717H26.9166C22.3295 8.49717 18.0455 5.30117 16.9546 1.0625C16.7591 0.303169 15.997 -0.147331 15.2291 0.0453355C14.4698 0.240835 14.0165 1.01434 14.212 1.77084C15.5238 6.868 20.1506 10.6788 25.5 11.2568V41.0862C25.5 48.3962 16.4588 51.1643 16.3766 51.2068C10.319 52.19 5.66663 57.4175 5.66663 63.75V66.5833C5.66663 67.3653 6.30129 68 7.08329 68C7.86529 68 8.49996 67.3653 8.49996 66.5833V63.75C8.49996 58.82 12.1266 54.7513 16.847 53.992C17.6545 54.4822 18.4478 54.978 19.21 55.4597C24.7236 58.956 29.9341 62.2597 42.4915 62.3333H42.5963C47.8238 62.3333 53.0371 60.129 56.9131 56.2757C60.4066 52.7992 62.3333 48.4103 62.3333 43.9167V26.9138C62.3333 16.7592 54.0713 8.49717 43.9166 8.49717ZM43.9166 11.3305C52.5073 11.3305 59.5 18.3232 59.5 26.9138V33.9405C57.545 32.6457 54.5615 31.1667 51 31.1667C47.9031 31.1667 45.8971 31.9345 43.9591 32.6768C42.1798 33.3568 40.4996 34 37.9298 34C33.7676 34 29.716 31.416 28.3333 30.4442V11.3333L43.9166 11.3305ZM54.9156 54.264C51.6148 57.545 47.0163 59.4972 42.5906 59.4972H42.5085C30.7643 59.432 26.1148 56.4825 20.7258 53.0627C20.5275 52.9352 20.3263 52.8077 20.1251 52.6802C23.3721 51.0878 28.3305 47.583 28.3305 41.0805V33.8158C30.5575 35.139 34.1388 36.8277 37.927 36.8277C41.0238 36.8277 43.0298 36.0598 44.9678 35.3175C46.7471 34.6375 48.4273 33.9943 50.9971 33.9943C55.0856 33.9943 58.4006 36.5217 59.4971 37.4623V43.911C59.4971 47.6453 57.868 51.3202 54.9128 54.2612L54.9156 54.264Z" fill="#086060"/>
</svg>
