<svg width="68" height="68" viewBox="0 0 68 68" fill="none" xmlns="http://www.w3.org/2000/svg">
<g clip-path="url(#clip0_71_147)">
<path d="M49.1017 51.3683C49.6967 51.8783 49.725 52.785 49.215 53.38C48.9317 53.6917 48.535 53.8617 48.1667 53.8617C47.8267 53.8617 47.4867 53.7483 47.2317 53.4933C47.175 53.4367 41.1683 48.195 34 48.195C26.8317 48.195 20.825 53.4367 20.7683 53.4933C20.1733 54.0033 19.295 53.975 18.7567 53.38C18.2467 52.785 18.275 51.9067 18.87 51.3683C19.1533 51.1133 25.6983 45.3333 33.9717 45.3333C42.245 45.3333 48.8183 51.1133 49.0733 51.3683H49.1017ZM22.6667 36.8333C24.225 36.8333 25.5 35.5583 25.5 34C25.5 32.4417 24.225 31.1667 22.6667 31.1667C21.1083 31.1667 19.8333 32.4417 19.8333 34C19.8333 35.5583 21.1083 36.8333 22.6667 36.8333ZM45.3333 36.8333C46.8917 36.8333 48.1667 35.5583 48.1667 34C48.1667 32.4417 46.8917 31.1667 45.3333 31.1667C43.775 31.1667 42.5 32.4417 42.5 34C42.5 35.5583 43.775 36.8333 45.3333 36.8333ZM68 34C68 52.7567 52.7567 68 34 68C15.2433 68 0 52.7567 0 34C0 15.2433 15.2433 0 34 0C52.7567 0 68 15.2433 68 34ZM34 2.83333C30.0617 2.83333 26.3217 3.59833 22.8367 4.93C33.4333 7.31 47.4583 11.6733 61.5683 19.55C56.355 9.63333 45.9567 2.83333 33.9717 2.83333H34ZM9.66167 14.5917C16.3767 15.5267 42.6417 20.0317 65.0817 35.615C65.0817 35.0767 65.1667 34.5383 65.1667 34C65.1667 30.43 64.5433 27.0017 63.41 23.8C46.8633 13.94 30.005 9.18 18.615 6.94167C15.1583 8.89667 12.1267 11.5033 9.66167 14.5917ZM2.86167 33.575C6.46 30.8267 14.1383 25.67 26.4067 21.0517C15.7817 18.0767 8.18833 17.2267 7.79167 17.1983C4.73167 21.93 2.94667 27.54 2.86167 33.575ZM64.77 38.845C53.6067 30.8267 41.31 25.67 31.025 22.4117C14.3367 28.0783 5.38333 35.0483 3.00333 37.0883C4.56167 52.8133 17.8783 65.1667 34 65.1667C50.1217 65.1667 62.4183 53.72 64.7417 38.845H64.77Z" fill="#086060"/>
</g>
<defs>
<clipPath id="clip0_71_147">
<rect width="68" height="68" fill="white"/>
</clipPath>
</defs>
</svg>
