<svg width="68" height="68" viewBox="0 0 68 68" fill="none" xmlns="http://www.w3.org/2000/svg">
<g clip-path="url(#clip0_71_103)">
<path d="M66.802 31.5518C65.5553 29.3588 63.504 27.7834 61.0276 27.1233C58.5598 26.4631 50.55 25.5026 43.614 25.5026H36.7545L53.2303 15.6171C55.3525 14.3449 56.67 12.0188 56.67 9.51976C56.67 8.40059 57.1006 7.34376 57.8855 6.54476L61.9343 2.41093C62.4811 1.85276 62.4698 0.954595 61.9116 0.407761C61.3591 -0.139072 60.4553 -0.124905 59.9085 0.430428L55.8596 4.56426C54.5563 5.89593 53.8366 7.65543 53.8366 9.54526C53.8366 11.0299 53.0461 12.4268 51.774 13.1889L40.9733 19.6688C41.047 19.2636 41.0866 18.8443 41.0866 18.4193C41.0866 15.4669 39.2705 12.9311 36.695 11.8686L34.9326 0.790261C34.6946 -0.260905 33.1986 -0.260905 32.9606 0.790261L31.1898 11.9196C28.6795 13.0104 26.9171 15.5123 26.9171 18.4193C26.9171 18.8471 26.9568 19.2636 27.0305 19.6688L16.2298 13.1889C14.9605 12.4239 14.1671 11.0299 14.1671 9.51976C14.1671 7.65543 13.4475 5.89593 12.1441 4.56426L8.09531 0.424761C7.55131 -0.130572 6.65031 -0.144739 6.09214 0.402095C5.53398 0.948928 5.52264 1.84709 6.06948 2.40526L10.1183 6.5391C10.9003 7.3381 11.3338 8.39493 11.3338 9.5396C11.3338 12.0159 12.6513 14.3421 14.7735 15.6143L31.2493 25.4998H24.3898C17.4538 25.4998 9.44398 26.4603 6.97614 27.1204C4.49981 27.7834 2.44848 29.3559 1.20181 31.5489C-0.0165235 33.6909 -0.31969 36.1673 0.34331 38.5246C1.49648 42.6301 5.32148 45.3331 9.47798 45.3331C10.2996 45.3331 11.1383 45.2254 11.9685 45.0044C15.6235 44.0269 27.3846 34.3624 32.5838 29.9821V36.1758L16.6746 49.6369C15.0823 50.9856 14.1671 52.9548 14.1671 55.0458V58.1936C14.1671 59.4913 13.5863 60.7011 12.572 61.5114L7.61648 65.4753C7.00448 65.9654 6.90814 66.8551 7.39548 67.4671C7.67598 67.8184 8.08681 67.9998 8.50331 67.9998C8.81214 67.9998 9.12664 67.8978 9.38731 67.6909L14.3428 63.7243C16.0343 62.3728 17.0005 60.3554 17.0005 58.1936V55.0458C17.0005 53.7934 17.5473 52.6091 18.505 51.8016L32.5838 39.8903V55.2526C32.5838 56.0346 33.2185 56.6693 34.0005 56.6693C34.7825 56.6693 35.4171 56.0346 35.4171 55.2526V39.8903L49.496 51.8016C50.4536 52.6091 51.0005 53.7934 51.0005 55.0458V58.1936C51.0005 60.3554 51.9695 62.3728 53.6581 63.7271L58.6136 67.6909C58.8771 67.9006 59.186 67.9998 59.5005 67.9998C59.9141 67.9998 60.3278 67.8184 60.6083 67.4671C61.0956 66.8551 60.9993 65.9654 60.3873 65.4753L55.4318 61.5114C54.4175 60.6983 53.8366 59.4884 53.8366 58.1908V55.0429C53.8366 52.9548 52.9243 50.9828 51.3291 49.6341L35.42 36.1729V29.9793C40.6191 34.3596 52.3803 44.0241 56.0353 45.0016C56.8655 45.2254 57.7041 45.3303 58.5258 45.3303C62.6823 45.3303 66.5045 42.6273 67.6605 38.5246C68.3235 36.1644 68.0175 33.6881 66.802 31.5518ZM34.0005 14.1664C36.3436 14.1664 38.2505 16.0733 38.2505 18.4164C38.2505 20.7596 36.3436 22.6664 34.0005 22.6664C31.6573 22.6664 29.7505 20.7596 29.7505 18.4164C29.7505 16.0733 31.6573 14.1664 34.0005 14.1664ZM11.2375 42.2646C7.68731 43.2081 4.03798 41.1879 3.07181 37.7539C2.61281 36.1304 2.82248 34.4248 3.66114 32.9514C4.53381 31.4214 5.96748 30.3221 7.70431 29.8574C9.63948 29.3389 17.2781 28.3331 24.3898 28.3331H30.1415C23.1828 34.1641 13.7535 41.5931 11.2375 42.2646ZM64.9291 37.7568C63.963 41.1879 60.2966 43.2109 56.7663 42.2646C54.2475 41.5903 44.8181 34.1641 37.8595 28.3331H43.6111C50.7228 28.3331 58.3615 29.3389 60.2966 29.8574C62.0306 30.3221 63.4671 31.4214 64.3398 32.9514C65.1785 34.4248 65.3881 36.1304 64.9291 37.7568Z" fill="#086060"/>
</g>
<defs>
<clipPath id="clip0_71_103">
<rect width="68" height="68" fill="white"/>
</clipPath>
</defs>
</svg>
