<svg width="67" height="68" viewBox="0 0 67 68" fill="none" xmlns="http://www.w3.org/2000/svg">
<g clip-path="url(#clip0_71_142)">
<path d="M41.9593 39.6667C41.9593 41.2307 40.7326 42.5 39.2212 42.5C37.7097 42.5 36.483 41.2307 36.483 39.6667C36.483 38.1027 37.7097 36.8333 39.2212 36.8333C40.7326 36.8333 41.9593 38.1027 41.9593 39.6667ZM20.0542 39.6667C18.5427 39.6667 17.316 40.936 17.316 42.5C17.316 44.064 18.5427 45.3333 20.0542 45.3333C21.5656 45.3333 22.7923 44.064 22.7923 42.5C22.7923 40.936 21.5656 39.6667 20.0542 39.6667ZM41.9593 17C40.4479 17 39.2212 18.2693 39.2212 19.8333C39.2212 21.3973 40.4479 22.6667 41.9593 22.6667C43.4708 22.6667 44.6974 21.3973 44.6974 19.8333C44.6974 18.2693 43.4708 17 41.9593 17ZM66.6026 25.5C66.6026 26.282 65.9892 26.9167 65.2335 26.9167H61.0277C60.7703 29.5602 59.9817 32.0847 58.7386 34.3683L62.4105 36.6775C63.0567 37.0855 63.262 37.9553 62.8677 38.624C62.6104 39.0632 62.1586 39.304 61.6958 39.304C61.4549 39.304 61.2084 39.2388 60.9866 39.0972L57.219 36.7285C56.7398 37.3688 56.2332 37.9893 55.6692 38.573L51.9918 42.3782L55.2475 45.747C55.7814 46.2995 55.7814 47.1977 55.2475 47.7502C54.9792 48.0278 54.6287 48.1638 54.2782 48.1638C53.9277 48.1638 53.5772 48.025 53.3089 47.7502L50.0532 44.3813L43.7747 50.8782L47.0303 54.247C47.5643 54.7995 47.5643 55.6977 47.0303 56.2502C46.762 56.5278 46.4115 56.6638 46.061 56.6638C45.7106 56.6638 45.3601 56.525 45.0917 56.2502L41.8361 52.8813L38.156 56.6893C37.5975 57.2673 37.0033 57.7858 36.3954 58.276L38.6325 62.0812C39.0268 62.7498 38.8187 63.6197 38.1752 64.0277C37.9534 64.1665 37.707 64.2345 37.466 64.2345C37.0033 64.2345 36.5542 63.9937 36.2941 63.5545L34.1145 59.8457C31.861 61.1575 29.4022 61.9565 26.8968 62.2228V66.5862C26.8968 67.3682 26.2835 68.0028 25.5277 68.0028C24.772 68.0028 24.1587 67.3682 24.1587 66.5862V62.288C21.6067 62.1718 19.0767 61.5202 16.7356 60.3245L14.7203 63.8152C14.4629 64.26 14.0111 64.5065 13.5429 64.5065C13.3047 64.5065 13.061 64.4413 12.8419 64.3053C12.193 63.903 11.9821 63.0332 12.3682 62.3617L14.3753 58.8852C13.4772 58.2392 12.6147 57.5195 11.8151 56.6922C10.8184 55.6608 9.97235 54.536 9.24949 53.3517L5.4955 55.4568C5.2874 55.573 5.06561 55.6297 4.84382 55.6297C4.35643 55.6297 3.88547 55.3605 3.63904 54.8873C3.2776 54.1988 3.52404 53.3403 4.1894 52.9663L7.9653 50.8498C7.02338 48.6398 6.50587 46.291 6.40456 43.9195H2.25628C1.50055 43.9195 0.887207 43.2848 0.887207 42.5028C0.887207 41.7208 1.50055 41.0862 2.25628 41.0862H6.47575C6.7304 38.5135 7.4916 35.989 8.74293 33.6713L5.07382 31.3848C4.42488 30.9825 4.21678 30.1127 4.60834 29.4412C4.99715 28.7697 5.83776 28.5515 6.4867 28.9595L10.2544 31.3055C10.7363 30.6567 11.2483 30.0277 11.8233 29.4327L15.5034 25.6247L12.245 22.253C11.7111 21.7005 11.7111 20.8023 12.245 20.2498C12.7789 19.6973 13.6469 19.6973 14.1809 20.2498L17.4393 23.6215L23.7178 17.1247L20.4594 13.753C19.9255 13.2005 19.9255 12.3023 20.4594 11.7498C20.9934 11.1973 21.8614 11.1973 22.3953 11.7498L25.6537 15.1215L29.331 11.3135C29.8896 10.7355 30.4838 10.217 31.0971 9.72117L28.8765 5.899C28.4849 5.2275 28.6958 4.35767 29.342 3.95533C29.9882 3.54733 30.8288 3.7655 31.2203 4.437L33.3752 8.14583C35.5877 6.85383 38.0301 6.035 40.593 5.76867V1.41667C40.593 0.634667 41.2063 0 41.962 0C42.7178 0 43.3311 0.634667 43.3311 1.41667V5.70917C45.7379 5.81683 48.0599 6.39483 50.2011 7.4035L52.2848 3.4255C52.6435 2.737 53.4759 2.482 54.1413 2.856C54.8067 3.22717 55.0531 4.0885 54.6917 4.777L52.6079 8.75783C53.7004 9.49167 54.7327 10.3388 55.6746 11.3163C56.4824 12.1522 57.1943 13.056 57.8296 14.0052L61.4111 11.7923C62.06 11.39 62.9006 11.6082 63.2894 12.2825C63.6782 12.954 63.4647 13.8238 62.8157 14.2262L59.2123 16.4532C60.335 18.8133 60.9757 21.4002 61.0907 24.089H65.239C65.9947 24.089 66.608 24.7237 66.608 25.5057L66.6026 25.5ZM58.3881 24.9447C58.3881 20.553 56.7343 16.4248 53.7333 13.3167C50.7323 10.2113 46.7428 8.5 42.4987 8.5C38.2546 8.5 34.2651 10.2113 31.2614 13.3167L13.7537 31.4358C7.55732 37.8477 7.55732 48.2772 13.7537 54.689C19.9501 61.1008 30.0292 61.1037 36.2256 54.689L53.7333 36.5727C56.7343 33.4673 58.3881 29.3392 58.3881 24.9475V24.9447Z" fill="#086060"/>
</g>
<defs>
<clipPath id="clip0_71_142">
<rect width="65.7153" height="68" fill="white" transform="translate(0.887207)"/>
</clipPath>
</defs>
</svg>
