<svg width="68" height="68" viewBox="0 0 68 68" fill="none" xmlns="http://www.w3.org/2000/svg">
<g clip-path="url(#clip0_71_62)">
<path d="M65.1667 11.3333H62.3333C58.3185 11.3333 54.808 11.7554 51.7055 12.4383L54.5898 8.11178C55.0092 7.48278 55.1593 6.72628 55.0092 5.98678C54.8618 5.24445 54.434 4.60412 53.8022 4.18478L51.4448 2.61512C50.8158 2.19578 50.0678 2.04278 49.317 2.19295C48.5747 2.34312 47.9372 2.77095 47.515 3.39995L44.9735 7.31845C44.2255 6.88211 43.4152 6.52795 42.5 6.26161V2.83895C42.5 1.27778 41.2307 0.00561523 39.6667 0.00561523H36.8333C35.2693 0.00561523 34 1.27778 34 2.83895L33.9632 6.21628C33.0735 6.43728 32.181 6.73478 31.2942 7.12295L28.8717 3.27812C28.0358 1.95778 26.2848 1.56395 24.9645 2.39412L22.5675 3.90428C21.9272 4.30945 21.4823 4.93845 21.3152 5.67511C21.148 6.41461 21.2783 7.17395 21.6835 7.81145L24.3128 12.0303C22.1057 14.3253 20.5842 16.7336 19.6463 18.4421C18.3968 8.15711 10.489 1.01995 3.09967 0.104782C2.3375 0.00844856 1.55833 0.252115 0.971833 0.770615C0.354167 1.31462 0 2.10228 0 2.92395V5.86778C0 7.23062 1.02 8.36678 2.42533 8.57362C6.77167 9.19695 11.135 14.0901 11.3022 23.5534C7.82 26.6191 5.66667 31.3423 5.66667 36.8333C5.66667 50.3313 18.7538 63.5176 36.108 67.5069C37.5473 67.8384 38.8847 68.0028 40.1398 68.0028C41.6925 68.0028 43.112 67.7506 44.4295 67.2406C52.3827 64.1608 56.6695 51.4646 56.6667 41.0861C56.6667 35.7085 55.4143 32.9403 54.0855 30.0078C53.8418 29.4638 53.5897 28.9113 53.3403 28.3248C52.581 26.5369 52.5697 25.1061 53.2978 23.9473C55.4228 20.5728 63.0332 19.9721 65.314 19.8701C66.8185 19.8021 67.9972 18.5583 67.9972 17.0424V14.1723C67.9972 12.6111 66.7278 11.3389 65.1638 11.3389L65.1667 11.3333ZM26.7353 10.5088L24.0777 6.29845L26.4747 4.78828L28.8943 8.63028C29.6338 9.80328 31.1157 10.2594 32.419 9.70411C33.1472 9.39811 33.8952 9.14878 34.6432 8.96178C35.9323 8.64161 36.8305 7.51678 36.8305 6.22478V2.83328H39.6638V6.25595C39.6638 7.50828 40.4968 8.60195 41.735 8.97595C42.3782 9.17145 42.9817 9.43495 43.5427 9.75795C44.8092 10.4974 46.444 10.1036 47.2713 8.86261L49.8695 4.96395L52.2268 6.53645L47.549 13.5574C47.549 13.5574 47.549 13.5659 47.5433 13.5688C38.505 16.6089 34.0057 21.9838 32.232 24.6896C29.4157 22.3521 25.4235 20.2129 22.0717 19.8956C22.9132 18.3514 24.3185 16.0961 26.3443 13.9909C27.2652 13.0389 27.4238 11.6053 26.7297 10.5088H26.7353ZM2.83333 5.86778L2.75117 2.91545C9.42367 3.73995 16.5892 10.6419 16.966 20.4509C15.929 20.7513 14.943 21.1564 14.0165 21.6636C13.26 11.7583 8.05517 6.52512 2.83617 5.86778H2.83333ZM65.1667 17.0339C60.9762 17.2266 53.5755 18.1843 50.9008 22.4314C49.6598 24.4063 49.6032 26.7579 50.7337 29.4269C50.9887 30.0304 51.2493 30.6084 51.5015 31.1694C52.751 33.9319 53.8277 36.3148 53.8305 41.0804C53.8305 50.6514 49.9318 62.0641 43.401 64.5943C41.5763 65.3026 39.3975 65.3536 36.7398 64.7416C20.9015 61.1008 8.49433 48.8409 8.49433 36.8304C8.49433 28.6223 13.8578 22.6638 21.2443 22.6638C24.2363 22.6638 28.6025 25.1429 31.1922 27.5654C31.2687 30.0106 30.8408 40.7178 17.9265 45.4154C17.1898 45.6818 16.8102 46.4949 17.0793 47.2316C17.2862 47.8068 17.833 48.1638 18.411 48.1638C18.5725 48.1638 18.734 48.1354 18.8955 48.0788C33.7875 42.6643 34.0935 29.7216 34.0085 27.2283C35.054 25.2704 41.8823 14.1638 62.3277 14.1638H65.161V17.0339H65.1667Z" fill="#086060"/>
</g>
<defs>
<clipPath id="clip0_71_62">
<rect width="68" height="68" fill="white"/>
</clipPath>
</defs>
</svg>
