<svg width="68" height="68" viewBox="0 0 68 68" fill="none" xmlns="http://www.w3.org/2000/svg">
<g clip-path="url(#clip0_71_66)">
<path d="M22.2473 32.0705C19.4962 29.1578 14.4925 29.1748 11.7753 32.0507L4.981 38.9782C-1.64617 45.6053 -1.64617 56.3918 4.981 63.019C8.19116 66.2292 12.461 67.9972 17 67.9972C21.539 67.9972 25.8088 66.2292 29.0218 63.019C35.649 56.3918 35.649 45.6053 29.0303 38.9867L22.2445 32.0676L22.2473 32.0705ZM27.0187 61.0187C24.344 63.6933 20.7853 65.1666 17 65.1666C13.2147 65.1666 9.65883 63.6933 6.98416 61.0187C1.45916 55.4936 1.45916 46.5063 6.99266 40.9728L13.8153 34.0142C14.6512 33.1302 15.7817 32.64 17 32.64C18.2183 32.64 19.3488 33.1273 20.2045 34.034L27.0187 40.9813C32.5437 46.5063 32.5437 55.4965 27.0187 61.0187ZM63.4922 24.4573L57.2305 17.4392C54.5757 14.8438 50.2577 14.841 47.5405 17.51L41.4007 24.3978C35.3232 30.4753 35.3232 40.3608 41.4007 46.4355C44.3445 49.3793 48.2573 51 52.4195 51C56.5817 51 60.4945 49.3793 63.4383 46.4355C69.5158 40.358 69.5158 30.4725 63.495 24.4545L63.4922 24.4573ZM61.4323 44.4352C59.024 46.8435 55.8223 48.1695 52.4167 48.1695C49.011 48.1695 45.8093 46.8435 43.401 44.4352C38.4313 39.4627 38.4313 31.3763 43.4577 26.3443L49.5862 19.4678C50.3767 18.6972 51.4165 18.3147 52.445 18.3147C53.448 18.3147 54.4453 18.6773 55.182 19.397L61.4323 26.4038C66.402 31.3763 66.402 39.4627 61.4323 44.4352ZM28.679 1.29765C26.928 -0.416513 24.0777 -0.416513 22.3068 1.31182L17.4845 6.15399C15.3425 8.29315 14.1638 11.1407 14.1638 14.1667C14.1638 17.1927 15.3425 20.0402 17.4845 22.1822C19.6265 24.3242 22.4712 25.5 25.4972 25.5C28.5232 25.5 31.3707 24.3213 33.5127 22.1822C37.9327 17.7622 37.9327 10.5712 33.5127 6.15682L28.6733 1.29765H28.679ZM31.5123 20.179C28.2993 23.3892 22.7007 23.3892 19.4905 20.179C17.884 18.5725 17 16.439 17 14.1667C17 11.8943 17.884 9.76082 19.4933 8.15432L24.3043 3.32065C24.6358 2.99482 25.0722 2.83615 25.5057 2.83615C25.9363 2.83615 26.3642 2.99482 26.6843 3.30932L31.5123 8.15715C34.8245 11.4693 34.8245 16.864 31.5123 20.179Z" fill="#086060"/>
</g>
<defs>
<clipPath id="clip0_71_66">
<rect width="68" height="68" fill="white"/>
</clipPath>
</defs>
</svg>
