<svg width="68" height="68" viewBox="0 0 68 68" fill="none" xmlns="http://www.w3.org/2000/svg">
<g clip-path="url(#clip0_71_64)">
<path d="M28.3333 31.1667C28.3333 32.7307 27.064 34 25.5 34C23.936 34 22.6667 32.7307 22.6667 31.1667C22.6667 29.6027 23.936 28.3333 25.5 28.3333C27.064 28.3333 28.3333 29.6027 28.3333 31.1667ZM42.5 28.3333C40.936 28.3333 39.6667 29.6027 39.6667 31.1667C39.6667 32.7307 40.936 34 42.5 34C44.064 34 45.3333 32.7307 45.3333 31.1667C45.3333 29.6027 44.064 28.3333 42.5 28.3333ZM68 31.1667C68 35.853 64.1863 39.6667 59.5 39.6667H57.8C56.4485 42.9137 54.145 46.206 51.2125 49.0167C55.7997 53.7795 58.6557 59.7805 59.4887 66.4077C59.585 67.184 59.0353 67.8923 58.259 67.9915C58.1995 68 58.14 68.0028 58.0805 68.0028C57.3778 68.0028 56.7658 67.4787 56.678 66.7618C55.9187 60.7042 53.2922 55.2245 49.079 50.8867C44.7837 54.3207 39.4967 56.6695 34.0057 56.6695H34C28.5062 56.6695 23.2192 54.3178 18.921 50.8867C14.7078 55.2245 12.0813 60.7042 11.322 66.7618C11.2342 67.4787 10.6222 68.0028 9.9195 68.0028C9.86 68.0028 9.8005 68.0028 9.741 67.9915C8.9675 67.8952 8.415 67.1868 8.51133 66.4077C9.34433 59.7805 12.2003 53.7823 16.7875 49.0167C13.855 46.206 11.5515 42.9137 10.2 39.6667H8.5C3.81367 39.6667 0 35.853 0 31.1667C0 26.8487 3.24133 23.2702 7.41483 22.7347C9.4435 9.69283 20.6635 0 34 0C47.3365 0 58.5763 9.707 60.5908 22.7658C64.8267 23.3438 68 26.8912 68 31.1667ZM65.1667 31.1667C65.1667 28.0415 62.6252 25.5 59.5 25.5C58.7775 25.5 58.0097 24.973 57.9275 24.2562C56.5845 12.0417 46.2995 2.83333 34 2.83333C29.3137 2.83333 25.5 6.647 25.5 11.3333C25.5 16.0197 29.3137 19.8333 34 19.8333C38.131 19.8333 41.65 16.8867 42.3697 12.8237C42.5057 12.053 43.2537 11.5288 44.0102 11.6762C44.7808 11.8122 45.2937 12.5488 45.1577 13.3167C44.2 18.734 39.508 22.6667 34 22.6667C27.7497 22.6667 22.6667 17.5837 22.6667 11.3333C22.6667 8.82017 23.4883 6.49967 24.8767 4.61833C16.9263 7.86533 11.0642 15.2405 10.0725 24.2562C9.98467 25.0467 9.129 25.6218 8.36683 25.4943C5.37483 25.5028 2.83333 28.0443 2.83333 31.1695C2.83333 34.2947 5.37483 36.8362 8.5 36.8362H11.1662C11.764 36.8362 12.2967 37.2102 12.5007 37.7712C15.283 45.5005 24.293 53.839 34 53.839H34.0057C43.7098 53.839 52.717 45.5005 55.4993 37.7712C55.7005 37.2102 56.236 36.8362 56.8338 36.8362H59.5C62.6252 36.8362 65.1667 34.2947 65.1667 31.1695V31.1667Z" fill="#086060"/>
</g>
<defs>
<clipPath id="clip0_71_64">
<rect width="68" height="68" fill="white"/>
</clipPath>
</defs>
</svg>
