<svg width="68" height="68" viewBox="0 0 68 68" fill="none" xmlns="http://www.w3.org/2000/svg">
<g clip-path="url(#clip0_71_68)">
<path d="M23.8652 40.137C29.0813 38.3973 32.5833 33.5353 32.5833 28.0387V1.41667C32.5833 0.634667 33.218 0 34 0C34.782 0 35.4167 0.634667 35.4167 1.41667V28.0387C35.4167 33.5353 38.9187 38.3973 44.1348 40.137L51.4477 42.5737C52.19 42.8202 52.5895 43.622 52.343 44.3643C52.1447 44.9565 51.5893 45.3333 50.9972 45.3333C50.847 45.3333 43.2367 42.823 43.2367 42.823C39.0178 41.4177 35.7482 38.318 33.9972 34.4477C32.2462 38.3208 28.9793 41.4177 24.7577 42.823C24.7577 42.823 17.1445 45.3333 16.9972 45.3333C16.405 45.3333 15.8525 44.9593 15.6513 44.3643C15.4048 43.622 15.8072 42.8202 16.5467 42.5737L23.8595 40.137H23.8652ZM29.75 45.3333C28.968 45.3333 28.3333 45.968 28.3333 46.75V53.992C28.3333 57.9813 25.6417 61.4862 21.7827 62.5118L13.3988 64.7473C12.5658 65.025 11.7102 65.1667 10.8573 65.1667H10.846C8.7465 65.1667 6.681 64.3053 5.1765 62.8037C3.66633 61.2963 2.83333 59.2818 2.83333 57.1342C2.83333 53.0627 3.298 48.9912 4.1905 45.1237L10.1292 25.2705C11.6365 18.734 17.3768 14.1695 24.0862 14.1695C24.8682 14.1695 25.5028 13.5348 25.5028 12.7528C25.5028 11.9708 24.8682 11.3362 24.0862 11.3362C16.048 11.3362 9.1715 16.8045 7.38933 24.548L1.45067 44.3955C0.487333 48.5605 0 52.8445 0 57.1313C0 60.0383 1.12483 62.764 3.17333 64.8068C5.20767 66.8355 8.00133 68 10.8432 68H10.863C12.019 68 13.1722 67.8073 14.2148 67.4617L22.5165 65.2517C27.6108 63.8945 31.1695 59.2648 31.1695 53.992V46.75C31.1695 45.968 30.5348 45.3333 29.7528 45.3333H29.75ZM66.5238 44.3077L60.6333 24.633C58.8285 16.8017 51.9548 11.3333 43.9167 11.3333C43.1347 11.3333 42.5 11.968 42.5 12.75C42.5 13.532 43.1347 14.1667 43.9167 14.1667C50.626 14.1667 56.3663 18.7312 57.8963 25.3583L63.7897 45.0358C64.702 48.9912 65.1667 53.0627 65.1667 57.1342C65.1667 59.2818 64.3337 61.2963 62.8235 62.8037C61.319 64.3053 59.2535 65.1667 57.154 65.1667H57.1427C56.287 65.1667 55.4313 65.025 54.5162 64.7218L46.2145 62.5147C42.3583 61.4862 39.6638 57.9813 39.6638 53.992V46.75C39.6638 45.968 39.0292 45.3333 38.2472 45.3333C37.4652 45.3333 36.8305 45.968 36.8305 46.75V53.992C36.8305 59.2648 40.3892 63.8945 45.4835 65.2517L53.7002 67.4362C54.8222 67.8073 55.9782 68 57.1342 68H57.1512C59.9958 68 62.7895 66.8355 64.8238 64.8068C66.8723 62.764 67.9972 60.0383 67.9972 57.1313C67.9972 52.8445 67.5127 48.5605 66.5238 44.3077Z" fill="#086060"/>
</g>
<defs>
<clipPath id="clip0_71_68">
<rect width="68" height="68" fill="white"/>
</clipPath>
</defs>
</svg>
