<svg width="67" height="68" viewBox="0 0 67 68" fill="none" xmlns="http://www.w3.org/2000/svg">
<g clip-path="url(#clip0_9_59)">
<path d="M66.986 12.7132C66.8101 8.91088 65.1072 5.47404 62.1983 3.03454C57.0449 -1.27779 49.1417 -0.736623 44.2032 4.27554L11.5463 37.417C8.36938 40.6414 8.14046 47.4782 8.50617 52.6462C8.53688 53.0712 8.38892 53.4821 8.10417 53.7711L1.23388 60.7439C-0.399248 62.4014 -0.399248 65.0959 1.23388 66.7534C2.02392 67.5552 3.07638 67.9972 4.19584 67.9972C5.31529 67.9972 6.36496 67.5552 7.15779 66.7534L14.0281 59.7806C14.3184 59.4859 14.6953 59.3499 15.1392 59.3726C22.5427 59.9081 27.5928 58.8711 30.1416 56.2842L63.1503 22.7829C65.7633 20.1309 67.1619 16.4645 66.986 12.7132ZM61.1765 20.7825L28.1679 54.2839C26.2723 56.2106 21.7191 57.0096 15.3402 56.5477C14.1035 56.4741 12.9142 56.9047 12.0544 57.7802L5.18409 64.7531C4.65646 65.2886 3.738 65.2886 3.21038 64.7531C2.94796 64.4839 2.80279 64.1297 2.80279 63.7501C2.80279 63.3704 2.94796 63.0162 3.21038 62.7471L10.0807 55.7742C10.9405 54.8987 11.3816 53.6861 11.2923 52.4394C10.8344 45.9681 11.6273 41.344 13.5228 39.4174L16.8253 36.0655L22.7493 42.0779C23.0228 42.3555 23.3802 42.4915 23.7375 42.4915C24.0948 42.4915 24.4522 42.3527 24.7258 42.0779C25.2701 41.5254 25.2701 40.6272 24.7258 40.0747L18.8018 34.0624L25.2031 27.5655L31.127 33.5779C31.4006 33.8555 31.758 33.9915 32.1153 33.9915C32.4726 33.9915 32.83 33.8527 33.1035 33.5779C33.6479 33.0254 33.6479 32.1272 33.1035 31.5747L27.1796 25.5624L33.5809 19.0655L39.5048 25.0779C39.7784 25.3555 40.1358 25.4915 40.4931 25.4915C40.8504 25.4915 41.2078 25.3527 41.4813 25.0779C42.0257 24.5254 42.0257 23.6272 41.4813 23.0747L35.5574 17.0624L41.9587 10.5655L47.8826 16.5779C48.1562 16.8555 48.5135 16.9915 48.8709 16.9915C49.2282 16.9915 49.5855 16.8527 49.8591 16.5779C50.4035 16.0254 50.4035 15.1272 49.8591 14.5747L43.9352 8.56238L46.1881 6.27588C48.3572 4.07438 51.2326 2.94388 54.055 2.94388C56.3498 2.94388 58.6138 3.69188 60.4312 5.21621C62.7259 7.14288 64.0687 9.85155 64.2083 12.8435C64.3479 15.7959 63.2452 18.6859 61.1877 20.7769L61.1765 20.7825Z" fill="#086060"/>
</g>
<defs>
<clipPath id="clip0_9_59">
<rect width="67" height="68" fill="white"/>
</clipPath>
</defs>
</svg>
