<svg width="68" height="68" viewBox="0 0 68 68" fill="none" xmlns="http://www.w3.org/2000/svg">
<g clip-path="url(#clip0_71_70)">
<path d="M35.2722 22.6667H41.0833C41.8653 22.6667 42.5 22.032 42.5 21.25C42.5 20.468 41.8653 19.8333 41.0833 19.8333H35.2722C34.986 16.9972 33.881 14.4273 32.1668 12.3335L33.9008 10.5995C34.7593 11.1237 35.7538 11.441 36.8305 11.441C39.9557 11.441 42.4972 8.8995 42.4972 5.77433C42.4972 2.64917 39.9585 0.107667 36.8333 0.107667C33.7082 0.107667 31.1667 2.64917 31.1667 5.77433C31.1667 6.79433 31.4585 7.73783 31.9317 8.56517L30.1637 10.3303C28.0698 8.619 25.5 7.51117 22.6667 7.225V1.41667C22.6667 0.634667 22.032 0 21.25 0C20.468 0 19.8333 0.634667 19.8333 1.41667V7.22783C16.9972 7.514 14.4302 8.619 12.3363 10.3332L10.6392 8.63883C11.1378 7.7945 11.4438 6.8255 11.4438 5.77717C11.4438 2.652 8.90233 0.107667 5.77717 0.107667C2.652 0.107667 0.1105 2.652 0.1105 5.77433C0.1105 8.89667 2.652 11.441 5.77717 11.441C6.8255 11.441 7.7945 11.135 8.636 10.6392L10.3332 12.3335C8.619 14.4273 7.514 16.9972 7.22783 19.8333H1.41667C0.634667 19.8333 0 20.468 0 21.25C0 22.032 0.634667 22.6667 1.41667 22.6667H7.22783C7.514 25.5028 8.619 28.0727 10.3332 30.1665L8.52833 31.9713C7.68683 31.4727 6.715 31.1695 5.6695 31.1695C2.54433 31.1695 0.00283333 33.711 0.00283333 36.8362C0.00283333 39.9613 2.54433 42.5028 5.6695 42.5028C8.79467 42.5028 11.3362 39.9613 11.3362 36.8362C11.3362 35.7878 11.0302 34.8188 10.5315 33.9745L12.3363 32.1697C14.4302 33.8838 17 34.9888 19.8333 35.275V41.0862C19.8333 41.8682 20.468 42.5028 21.25 42.5028C22.032 42.5028 22.6667 41.8682 22.6667 41.0862V35.275C29.3335 34.6007 34.5978 29.3335 35.2722 22.6695V22.6667ZM36.8333 2.941C38.3945 2.941 39.6667 4.21033 39.6667 5.77433C39.6667 7.33833 38.3945 8.60767 36.8333 8.60767C35.2722 8.60767 34 7.33833 34 5.77433C34 4.21033 35.2722 2.941 36.8333 2.941ZM2.94383 5.77433C2.94383 4.21033 4.216 2.941 5.77717 2.941C7.33833 2.941 8.6105 4.21033 8.6105 5.77433C8.6105 7.52817 7.19667 8.60767 5.77717 8.60767C4.216 8.60767 2.94383 7.33833 2.94383 5.77433ZM5.66667 39.6667C4.1055 39.6667 2.83333 38.3973 2.83333 36.8333C2.83333 35.2693 4.1055 34 5.66667 34C7.22783 34 8.5 35.2693 8.5 36.8333C8.5 38.3973 7.22783 39.6667 5.66667 39.6667ZM21.25 32.5833C14.9997 32.5833 9.91667 27.5003 9.91667 21.25C9.91667 14.9997 14.9997 9.91667 21.25 9.91667C27.5003 9.91667 32.5833 14.9997 32.5833 21.25C32.5833 27.5003 27.5003 32.5833 21.25 32.5833ZM62.1888 52.4167H66.5833C67.3653 52.4167 68 51.782 68 51C68 50.218 67.3653 49.5833 66.5833 49.5833H62.1888C61.9282 47.5235 61.1292 45.6507 59.9137 44.0867L61.9253 42.075C62.4807 42.3413 63.0927 42.5 63.7472 42.5C66.0903 42.5 67.9972 40.5932 67.9972 38.25C67.9972 35.9068 66.0903 34 63.7472 34C61.404 34 59.4972 35.9068 59.4972 38.25C59.4972 38.9045 59.6587 39.5165 59.9222 40.0718L57.9077 42.0863C56.3437 40.8708 54.4708 40.0718 52.411 39.8112V35.4167C52.411 34.6347 51.7763 34 50.9943 34C50.2123 34 49.5777 34.6347 49.5777 35.4167V39.8112C47.5178 40.0718 45.645 40.8708 44.081 42.0863L42.0665 40.0718C42.3328 39.5165 42.4915 38.9045 42.4915 38.25C42.4915 35.9068 40.5847 34 38.2415 34C35.8983 34 33.9915 35.9068 33.9915 38.25C33.9915 40.5932 35.8983 42.5 38.2415 42.5C38.896 42.5 39.508 42.3385 40.0633 42.075L42.075 44.0867C40.8595 45.6507 40.0605 47.5235 39.7998 49.5833H35.4053C34.6233 49.5833 33.9887 50.218 33.9887 51C33.9887 51.782 34.6233 52.4167 35.4053 52.4167H39.7998C40.0605 54.4765 40.8595 56.3493 42.075 57.9133L40.0633 59.925C39.508 59.6587 38.896 59.5 38.2415 59.5C35.8983 59.5 33.9915 61.4068 33.9915 63.75C33.9915 66.0932 35.8983 68 38.2415 68C40.5847 68 42.4915 66.0932 42.4915 63.75C42.4915 63.0955 42.33 62.4835 42.0665 61.9282L44.081 59.9137C45.645 61.1292 47.5178 61.9282 49.5777 62.1888V66.5833C49.5777 67.3653 50.2123 68 50.9943 68C51.7763 68 52.411 67.3653 52.411 66.5833V62.1888C54.4708 61.9282 56.3437 61.1292 57.9077 59.9137L59.9193 61.9282C59.653 62.4807 59.4943 63.0955 59.4943 63.7472C59.4943 66.0903 61.4012 67.9972 63.7443 67.9972C66.0875 67.9972 67.9943 66.0903 67.9943 63.7472C67.9943 61.404 66.0875 59.4972 63.7443 59.4972C63.0898 59.4972 62.4778 59.6587 61.9225 59.9222L59.9108 57.9077C61.1263 56.3437 61.9253 54.4708 62.186 52.411L62.1888 52.4167ZM57.0067 57.0067C55.4682 58.5452 53.3432 59.4972 51.0028 59.4972C46.3165 59.4972 42.5028 55.6835 42.5028 50.9972C42.5028 46.3108 46.3165 42.4972 51.0028 42.4972C55.6892 42.4972 59.5028 46.3108 59.5028 50.9972C59.5028 53.3403 58.5508 55.4625 57.0123 57.001L57.0067 57.0067ZM63.75 36.8333C64.532 36.8333 65.1667 37.4708 65.1667 38.25C65.1667 39.0292 64.532 39.6667 63.75 39.6667C62.968 39.6667 62.3333 39.0292 62.3333 38.25C62.3333 37.4708 62.968 36.8333 63.75 36.8333ZM36.8333 38.25C36.8333 37.4708 37.468 36.8333 38.25 36.8333C39.032 36.8333 39.6667 37.4708 39.6667 38.25C39.6667 39.0292 39.032 39.6667 38.25 39.6667C37.468 39.6667 36.8333 39.0292 36.8333 38.25ZM38.25 65.1667C37.468 65.1667 36.8333 64.5292 36.8333 63.75C36.8333 62.9708 37.468 62.3333 38.25 62.3333C39.032 62.3333 39.6667 62.9708 39.6667 63.75C39.6667 64.5292 39.032 65.1667 38.25 65.1667ZM65.1667 63.75C65.1667 64.5292 64.532 65.1667 63.75 65.1667C62.968 65.1667 62.3333 64.5292 62.3333 63.75C62.3333 62.9708 62.968 62.3333 63.75 62.3333C64.532 62.3333 65.1667 62.9708 65.1667 63.75Z" fill="#086060"/>
</g>
<defs>
<clipPath id="clip0_71_70">
<rect width="68" height="68" fill="white"/>
</clipPath>
</defs>
</svg>
